<mxfile host="app.diagrams.net" modified="2023-09-27T13:47:42.379Z" agent="Mozilla/5.0 (Windows NT 10.0; Win64; x64) AppleWebKit/537.36 (KHTML, like Gecko) Chrome/117.0.0.0 Safari/537.36" etag="5NZF6D9pW3ek469vIO9v" version="21.8.2" type="device">
  <diagram name="Страница 1" id="peiVjQ6xKM0UFsxWsOr3">
    <mxGraphModel dx="1050" dy="542" grid="1" gridSize="10" guides="1" tooltips="1" connect="1" arrows="1" fold="1" page="1" pageScale="1" pageWidth="827" pageHeight="1169" math="0" shadow="0">
      <root>
        <mxCell id="0" />
        <mxCell id="1" parent="0" />
        <mxCell id="ElTyYk3RJpOC77_nqdFr-27" value="" style="rounded=0;whiteSpace=wrap;html=1;strokeColor=#B9E0A5;" vertex="1" parent="1">
          <mxGeometry x="190" y="720" width="550" height="480" as="geometry" />
        </mxCell>
        <mxCell id="1JTkHmqc5n5id6cBLUgi-10" style="edgeStyle=orthogonalEdgeStyle;rounded=0;orthogonalLoop=1;jettySize=auto;html=1;exitX=0.5;exitY=1;exitDx=0;exitDy=0;entryX=0.5;entryY=0;entryDx=0;entryDy=0;" parent="1" edge="1">
          <mxGeometry relative="1" as="geometry">
            <mxPoint x="470" y="395" as="sourcePoint" />
          </mxGeometry>
        </mxCell>
        <mxCell id="ElTyYk3RJpOC77_nqdFr-1" value="Користувач" style="shape=umlActor;verticalLabelPosition=bottom;verticalAlign=top;html=1;outlineConnect=0;fillColor=#dae8fc;strokeColor=#6c8ebf;" vertex="1" parent="1">
          <mxGeometry x="90" y="790" width="30" height="60" as="geometry" />
        </mxCell>
        <mxCell id="ElTyYk3RJpOC77_nqdFr-2" value="Авторизувати&lt;br&gt;користувача" style="ellipse;whiteSpace=wrap;html=1;fillColor=#d5e8d4;strokeColor=#82b366;" vertex="1" parent="1">
          <mxGeometry x="300" y="795" width="140" height="50" as="geometry" />
        </mxCell>
        <mxCell id="ElTyYk3RJpOC77_nqdFr-3" value="" style="endArrow=none;html=1;rounded=0;entryX=0;entryY=0.5;entryDx=0;entryDy=0;" edge="1" parent="1" source="ElTyYk3RJpOC77_nqdFr-1" target="ElTyYk3RJpOC77_nqdFr-2">
          <mxGeometry width="50" height="50" relative="1" as="geometry">
            <mxPoint x="120" y="316" as="sourcePoint" />
            <mxPoint x="430" y="225" as="targetPoint" />
          </mxGeometry>
        </mxCell>
        <mxCell id="ElTyYk3RJpOC77_nqdFr-9" style="edgeStyle=orthogonalEdgeStyle;rounded=0;orthogonalLoop=1;jettySize=auto;html=1;exitX=0.5;exitY=0.5;exitDx=0;exitDy=0;exitPerimeter=0;entryX=0;entryY=0.5;entryDx=0;entryDy=0;" edge="1" parent="1" source="ElTyYk3RJpOC77_nqdFr-4" target="ElTyYk3RJpOC77_nqdFr-6">
          <mxGeometry relative="1" as="geometry" />
        </mxCell>
        <mxCell id="ElTyYk3RJpOC77_nqdFr-10" style="edgeStyle=orthogonalEdgeStyle;rounded=0;orthogonalLoop=1;jettySize=auto;html=1;exitX=0.5;exitY=0.5;exitDx=0;exitDy=0;exitPerimeter=0;entryX=0;entryY=0.5;entryDx=0;entryDy=0;" edge="1" parent="1" source="ElTyYk3RJpOC77_nqdFr-4" target="ElTyYk3RJpOC77_nqdFr-7">
          <mxGeometry relative="1" as="geometry" />
        </mxCell>
        <mxCell id="ElTyYk3RJpOC77_nqdFr-11" style="edgeStyle=orthogonalEdgeStyle;rounded=0;orthogonalLoop=1;jettySize=auto;html=1;exitX=0.5;exitY=0.5;exitDx=0;exitDy=0;exitPerimeter=0;entryX=0;entryY=0.5;entryDx=0;entryDy=0;" edge="1" parent="1" source="ElTyYk3RJpOC77_nqdFr-4" target="ElTyYk3RJpOC77_nqdFr-8">
          <mxGeometry relative="1" as="geometry" />
        </mxCell>
        <mxCell id="ElTyYk3RJpOC77_nqdFr-4" value="Робітник-споживач" style="shape=umlActor;verticalLabelPosition=bottom;verticalAlign=top;html=1;outlineConnect=0;fillColor=#dae8fc;strokeColor=#6c8ebf;" vertex="1" parent="1">
          <mxGeometry x="90" y="930" width="30" height="60" as="geometry" />
        </mxCell>
        <mxCell id="ElTyYk3RJpOC77_nqdFr-5" value="&lt;br&gt;" style="endArrow=block;endSize=16;endFill=0;html=1;rounded=0;" edge="1" parent="1" source="ElTyYk3RJpOC77_nqdFr-4" target="ElTyYk3RJpOC77_nqdFr-1">
          <mxGeometry x="-0.12" y="21" width="160" relative="1" as="geometry">
            <mxPoint x="340" y="920" as="sourcePoint" />
            <mxPoint x="50" y="1025" as="targetPoint" />
            <mxPoint as="offset" />
          </mxGeometry>
        </mxCell>
        <mxCell id="ElTyYk3RJpOC77_nqdFr-6" value="Отримати список&lt;br&gt;товарів" style="ellipse;whiteSpace=wrap;html=1;fillColor=#d5e8d4;strokeColor=#82b366;" vertex="1" parent="1">
          <mxGeometry x="300" y="890" width="140" height="50" as="geometry" />
        </mxCell>
        <mxCell id="ElTyYk3RJpOC77_nqdFr-7" value="Створити замовлення" style="ellipse;whiteSpace=wrap;html=1;fillColor=#d5e8d4;strokeColor=#82b366;" vertex="1" parent="1">
          <mxGeometry x="300" y="960" width="140" height="50" as="geometry" />
        </mxCell>
        <mxCell id="ElTyYk3RJpOC77_nqdFr-8" value="Оплатити замовлення" style="ellipse;whiteSpace=wrap;html=1;fillColor=#d5e8d4;strokeColor=#82b366;" vertex="1" parent="1">
          <mxGeometry x="300" y="1030" width="140" height="50" as="geometry" />
        </mxCell>
        <mxCell id="ElTyYk3RJpOC77_nqdFr-12" value="&amp;lt;&amp;lt;include&amp;gt;&amp;gt;" style="endArrow=block;endSize=16;endFill=0;html=1;rounded=0;exitX=0.5;exitY=0;exitDx=0;exitDy=0;entryX=0.5;entryY=1;entryDx=0;entryDy=0;dashed=1;" edge="1" parent="1" source="ElTyYk3RJpOC77_nqdFr-6" target="ElTyYk3RJpOC77_nqdFr-2">
          <mxGeometry x="-0.1111" y="-40" width="160" relative="1" as="geometry">
            <mxPoint x="379" y="357" as="sourcePoint" />
            <mxPoint x="500" y="250" as="targetPoint" />
            <mxPoint as="offset" />
          </mxGeometry>
        </mxCell>
        <mxCell id="ElTyYk3RJpOC77_nqdFr-13" value="&amp;lt;&amp;lt;include&amp;gt;&amp;gt;" style="endArrow=block;endSize=16;endFill=0;html=1;rounded=0;exitX=1;exitY=0.5;exitDx=0;exitDy=0;entryX=1;entryY=0.5;entryDx=0;entryDy=0;dashed=1;" edge="1" parent="1" source="ElTyYk3RJpOC77_nqdFr-7" target="ElTyYk3RJpOC77_nqdFr-2">
          <mxGeometry x="-0.1111" y="-40" width="160" relative="1" as="geometry">
            <mxPoint x="380" y="900" as="sourcePoint" />
            <mxPoint x="380" y="855" as="targetPoint" />
            <mxPoint as="offset" />
            <Array as="points">
              <mxPoint x="460" y="910" />
            </Array>
          </mxGeometry>
        </mxCell>
        <mxCell id="ElTyYk3RJpOC77_nqdFr-14" value="&amp;lt;&amp;lt;include&amp;gt;&amp;gt;" style="endArrow=block;endSize=16;endFill=0;html=1;rounded=0;exitX=1;exitY=0.5;exitDx=0;exitDy=0;entryX=1;entryY=0;entryDx=0;entryDy=0;dashed=1;" edge="1" parent="1" source="ElTyYk3RJpOC77_nqdFr-8" target="ElTyYk3RJpOC77_nqdFr-2">
          <mxGeometry x="-0.1111" y="-40" width="160" relative="1" as="geometry">
            <mxPoint x="390" y="910" as="sourcePoint" />
            <mxPoint x="390" y="865" as="targetPoint" />
            <mxPoint as="offset" />
            <Array as="points">
              <mxPoint x="550" y="930" />
              <mxPoint x="500" y="802" />
            </Array>
          </mxGeometry>
        </mxCell>
        <mxCell id="ElTyYk3RJpOC77_nqdFr-15" value="Сервіс E-pay&lt;br&gt;&amp;nbsp;" style="shape=umlActor;verticalLabelPosition=bottom;verticalAlign=top;html=1;outlineConnect=0;fillColor=#dae8fc;strokeColor=#6c8ebf;" vertex="1" parent="1">
          <mxGeometry x="90" y="1120" width="30" height="60" as="geometry" />
        </mxCell>
        <mxCell id="ElTyYk3RJpOC77_nqdFr-16" value="E-pay сплата" style="ellipse;whiteSpace=wrap;html=1;fillColor=#d5e8d4;strokeColor=#82b366;" vertex="1" parent="1">
          <mxGeometry x="300" y="1125" width="140" height="50" as="geometry" />
        </mxCell>
        <mxCell id="ElTyYk3RJpOC77_nqdFr-17" value="&amp;lt;&amp;lt;extend&amp;gt;&amp;gt;" style="endArrow=block;endSize=16;endFill=0;html=1;rounded=0;exitX=0.5;exitY=0;exitDx=0;exitDy=0;entryX=0.5;entryY=1;entryDx=0;entryDy=0;dashed=1;" edge="1" parent="1" source="ElTyYk3RJpOC77_nqdFr-16" target="ElTyYk3RJpOC77_nqdFr-8">
          <mxGeometry x="-0.1429" y="-40" width="160" relative="1" as="geometry">
            <mxPoint x="380" y="990" as="sourcePoint" />
            <mxPoint x="370" y="1100" as="targetPoint" />
            <mxPoint as="offset" />
          </mxGeometry>
        </mxCell>
        <mxCell id="ElTyYk3RJpOC77_nqdFr-18" value="" style="endArrow=none;html=1;rounded=0;entryX=0;entryY=0.5;entryDx=0;entryDy=0;" edge="1" parent="1" source="ElTyYk3RJpOC77_nqdFr-15" target="ElTyYk3RJpOC77_nqdFr-16">
          <mxGeometry width="50" height="50" relative="1" as="geometry">
            <mxPoint x="440" y="1010" as="sourcePoint" />
            <mxPoint x="240" y="1120" as="targetPoint" />
          </mxGeometry>
        </mxCell>
        <mxCell id="ElTyYk3RJpOC77_nqdFr-19" value="Сповістити про&lt;br&gt;успішність замовлення" style="ellipse;whiteSpace=wrap;html=1;fillColor=#d5e8d4;strokeColor=#82b366;" vertex="1" parent="1">
          <mxGeometry x="555" y="762" width="160" height="50" as="geometry" />
        </mxCell>
        <mxCell id="ElTyYk3RJpOC77_nqdFr-25" style="edgeStyle=orthogonalEdgeStyle;rounded=0;orthogonalLoop=1;jettySize=auto;html=1;exitX=0.5;exitY=0.5;exitDx=0;exitDy=0;exitPerimeter=0;entryX=1;entryY=0.5;entryDx=0;entryDy=0;" edge="1" parent="1" source="ElTyYk3RJpOC77_nqdFr-21" target="ElTyYk3RJpOC77_nqdFr-19">
          <mxGeometry relative="1" as="geometry" />
        </mxCell>
        <mxCell id="ElTyYk3RJpOC77_nqdFr-21" value="Оператор" style="shape=umlActor;verticalLabelPosition=bottom;verticalAlign=top;html=1;outlineConnect=0;fillColor=#dae8fc;strokeColor=#6c8ebf;" vertex="1" parent="1">
          <mxGeometry x="770" y="757" width="30" height="60" as="geometry" />
        </mxCell>
        <mxCell id="ElTyYk3RJpOC77_nqdFr-22" value="&amp;lt;&amp;lt;include&amp;gt;&amp;gt;" style="endArrow=block;endSize=16;endFill=0;html=1;rounded=0;exitX=0.5;exitY=0;exitDx=0;exitDy=0;entryX=0.5;entryY=0;entryDx=0;entryDy=0;dashed=1;" edge="1" parent="1" source="ElTyYk3RJpOC77_nqdFr-19" target="ElTyYk3RJpOC77_nqdFr-2">
          <mxGeometry x="0.3598" y="-14" width="160" relative="1" as="geometry">
            <mxPoint x="504" y="694" as="sourcePoint" />
            <mxPoint x="664" y="570" as="targetPoint" />
            <mxPoint as="offset" />
            <Array as="points">
              <mxPoint x="500" y="762" />
              <mxPoint x="420" y="760" />
            </Array>
          </mxGeometry>
        </mxCell>
        <mxCell id="ElTyYk3RJpOC77_nqdFr-26" value="&lt;br&gt;" style="endArrow=block;endSize=16;endFill=0;html=1;rounded=0;" edge="1" parent="1" source="ElTyYk3RJpOC77_nqdFr-21" target="ElTyYk3RJpOC77_nqdFr-1">
          <mxGeometry x="-0.12" y="21" width="160" relative="1" as="geometry">
            <mxPoint x="115" y="940" as="sourcePoint" />
            <mxPoint x="115" y="860" as="targetPoint" />
            <mxPoint as="offset" />
            <Array as="points">
              <mxPoint x="670" y="700" />
              <mxPoint x="430" y="700" />
              <mxPoint x="200" y="700" />
            </Array>
          </mxGeometry>
        </mxCell>
      </root>
    </mxGraphModel>
  </diagram>
</mxfile>
